<?xml version="1.0" standalone="no"?>
<!DOCTYPE svg PUBLIC "-//W3C//DTD SVG 20010904//EN"
 "http://www.w3.org/TR/2001/REC-SVG-20010904/DTD/svg10.dtd">
<svg version="1.0" xmlns="http://www.w3.org/2000/svg"
 width="192.000000pt" height="192.000000pt" viewBox="0 0 192.000000 192.000000"
 preserveAspectRatio="xMidYMid meet">
<metadata>
Created by potrace 1.11, written by Peter Selinger 2001-2013
</metadata>
<g transform="translate(0.000000,192.000000) scale(0.100000,-0.100000)"
fill="#000000" stroke="none">
<path d="M1039 1818 c-2 -40 -12 -72 -31 -104 -29 -50 -35 -40 -47 79 -1 4 -5
7 -10 7 -14 0 -92 -120 -85 -131 3 -5 0 -9 -5 -9 -6 0 -12 11 -12 25 -1 14 -3
30 -4 35 -1 6 -3 22 -4 36 -2 37 -19 20 -34 -33 -8 -26 -18 -48 -23 -50 -5 -1
-19 12 -31 30 -16 22 -23 26 -23 14 0 -25 0 -22 -15 -74 -8 -27 -15 -58 -15
-70 0 -14 -6 -23 -15 -23 -8 0 -15 3 -15 8 0 8 -56 72 -63 72 -5 0 0 -152 8
-240 4 -51 3 -62 -7 -52 -7 7 -20 12 -29 12 -16 0 -16 -4 -2 -52 8 -29 28 -70
45 -91 16 -20 29 -45 28 -55 -5 -66 0 -96 21 -118 12 -13 30 -24 38 -24 21 -1
54 -28 76 -62 17 -27 17 -27 -12 -33 -15 -4 -35 -9 -43 -12 -8 -4 -18 -7 -22
-7 -3 -1 -10 -4 -14 -8 -4 -5 -14 -8 -21 -8 -53 0 -232 -196 -234 -257 -1 -4
-5 -13 -10 -20 -6 -6 -13 -44 -16 -83 -6 -71 -6 -72 18 -68 16 2 31 -5 45 -21
28 -32 85 -33 118 -2 21 20 32 22 112 19 l89 -3 0 -127 1 -128 -63 0 c-35 0
-63 -3 -64 -7 -8 -64 -4 -115 10 -122 13 -6 190 -8 238 -2 8 1 11 36 10 126
l-2 125 45 0 45 0 -1 -125 c0 -81 3 -125 10 -128 10 -3 230 -1 247 2 6 1 5 81
0 124 -1 4 -30 7 -65 7 l-64 0 1 290 0 289 30 -17 c87 -50 157 -163 154 -250
-2 -40 3 -56 19 -72 48 -49 133 -20 135 45 1 45 -59 202 -98 259 -19 28 -49
64 -67 80 -40 37 -112 86 -125 86 -19 0 -20 18 -2 41 24 31 72 181 77 239 6
73 15 112 35 153 21 41 27 115 15 182 -10 57 -35 155 -48 189 l-11 28 -29 -56
c-25 -49 -42 -71 -36 -48 1 4 -4 35 -12 69 -12 60 -30 77 -30 30 -1 -56 -18
-48 -59 27 -43 77 -50 86 -52 64z"/>
</g>
</svg>
